<svg width="108" height="108" viewBox="0 0 108 108" fill="none" xmlns="http://www.w3.org/2000/svg">
<rect width="108" height="108" rx="20" fill="white"/>
<path fill-rule="evenodd" clip-rule="evenodd" d="M27.6407 6.6888C21.6961 8.01716 18.6478 9.75154 13.6556 14.6438C7.83346 20.3488 5.7567 25.9756 6.20487 34.8281C6.55459 41.7376 8.06635 45.7043 12.4624 51.2551C14.6872 54.0629 14.7144 54.2052 13.2875 55.4952C12.4752 56.2297 10.6209 59.0582 9.16755 61.7813C5.56543 68.531 4.99082 77.1717 7.6734 84.2747C12.2863 96.4928 25.596 104.009 38.2246 101.527C43.9235 100.408 48.6876 98.2264 51.8055 95.3091L53.9631 93.291L56.5145 95.4354C71.0006 107.609 93.8393 101.711 100.503 84.0773C103.738 75.5149 101.586 63.7427 95.4383 56.3712L93.4632 54.003L95.7016 51.176C99.6911 46.1375 101.467 41.7536 101.885 35.9127C103.08 19.2411 91.0695 6.24122 74.4578 6.22444C67.8562 6.21804 63.3618 7.69027 58.0102 11.6138L54.1376 14.4527L49.4927 11.3213C42.2565 6.44343 35.3203 4.97281 27.6407 6.6888ZM44.1595 13.1028C49.9104 16.2287 76.0824 42.4953 75.3494 44.4047C74.9164 45.5309 71.9961 43.0252 60.5631 31.7182C44.5941 15.9258 41.0712 13.5895 33.2428 13.6071C20.1356 13.6359 10.0495 27.1856 14.163 39.2384C14.6728 40.7322 16.1525 43.516 17.4522 45.4238C19.152 47.9198 19.5698 49.1363 18.9447 49.7605C17.6723 51.0313 15.245 48.5441 12.7144 43.3785C7.04437 31.8037 12.8641 16.7906 24.8973 11.9479C30.569 9.66602 38.7376 10.156 44.1595 13.1028ZM82.3135 11.657C91.1711 14.6709 97.5367 23.8224 97.5519 33.5629C97.5663 42.3587 96.0025 44.7308 78.8226 61.9827C62.5207 78.3538 61.7276 79.6118 65.4545 83.1797C67.7458 85.372 71.7833 87.1128 74.5795 87.1128C77.9791 87.1128 83.4379 84.0661 85.2314 81.1672C87.6242 77.3004 87.441 71.4027 84.8064 67.5263C83.0442 64.9328 82.9105 64.3413 83.8717 63.3814C84.8328 62.4215 85.3194 62.7324 87.2817 65.561C90.3925 70.0432 90.9415 76.6666 88.5846 81.2807C84.5383 89.2005 75.6359 92.3759 67.9266 88.649C63.2329 86.3799 60.4527 82.9167 60.4527 79.3393C60.4527 76.7049 61.6467 75.2743 75.9056 60.8182C84.4039 52.2015 91.937 43.8932 92.6453 42.3547C95.6856 35.748 95.0486 27.8642 91.0015 21.9913C84.8136 13.0141 70.9085 10.8673 62.447 17.5826C60.0822 19.4593 59.1834 19.7822 58.3175 19.0652C56.7233 17.7433 58.7401 15.7603 64.7055 12.7831C70.3099 9.98652 76.2809 9.60447 82.3135 11.657ZM39.6435 19.2435C42.0996 20.356 47.6256 25.2251 57.0499 34.5819C64.643 42.1205 70.8565 48.584 70.8565 48.9437C70.8565 49.3034 70.2939 49.8133 69.6073 50.077C68.7341 50.4111 63.9676 46.2158 53.8015 36.1636C40.6999 23.2102 38.9064 21.7148 35.8605 21.2056C31.4269 20.4647 27.7808 21.7283 24.4499 25.1603C20.2996 29.4363 20.1292 36.6696 24.0522 42.0397C25.1302 43.5152 25.1374 43.8429 24.1098 44.6941C23.1399 45.4981 22.5596 45.0961 20.7494 42.3634C15.1513 33.9161 18.8767 22.0512 28.1649 18.7439C32.4529 17.2166 35.458 17.3476 39.6435 19.2435ZM83.2562 20.571C89.2432 24.7231 91.6465 33.009 88.8271 39.7827C88.0476 41.6537 81.8573 48.5249 72.1066 58.3397C55.8278 74.726 54.9011 76.0743 55.9767 81.801C56.6681 85.4855 60.6128 89.8487 65.4105 92.236C77.078 98.0426 91.292 91.4088 94.1082 78.8413C95.3255 73.4072 94.1714 67.9731 90.6814 62.7108C88.7807 59.8447 88.4582 58.8289 89.2136 58.0887C89.9651 57.3542 90.6357 57.6795 92.1963 59.5386C102.35 71.6289 97.5311 90.4681 82.8697 95.9973C79.418 97.2993 77.2156 97.5838 72.742 97.3081C66.0916 96.8973 61.6515 94.7121 56.9842 89.5521L54.0504 86.3088L51.1821 89.4794C42.4557 99.1264 27.9808 100.131 18.4485 91.7509C14.2478 88.0583 11.8893 83.9326 10.8706 78.4961C9.99985 73.8468 11.1451 66.9892 13.4371 63.1352C14.3518 61.5967 21.4088 53.9646 29.1204 46.1751C40.2933 34.8888 43.3625 32.1962 44.234 32.9187C45.1135 33.6476 42.583 36.5825 31.3357 47.8807C12.9889 66.3115 10.7665 70.8712 14.8344 81.729C18.9599 92.7419 31.8719 97.6198 42.6702 92.2456C47.6296 89.7775 50.5003 86.5805 51.6775 82.2142C53.138 76.7977 52.0896 74.5813 44.3172 66.6535C38.5567 60.7782 37.3979 59.2077 38.2822 58.4748C39.1513 57.7539 40.8519 59.0838 46.5548 64.9471L53.7334 72.3266L69.9674 55.7909C84.5759 40.9104 86.2445 38.9347 86.6303 36.0597C87.2785 31.2347 86.2669 27.4957 83.5884 24.8214C78.9675 20.2058 71.648 19.6671 66.9711 23.597C64.8623 25.3697 64.5374 25.4345 63.5762 24.278C62.6751 23.1942 62.752 22.8177 64.0844 21.8003C70.3371 17.0231 77.4789 16.5652 83.2562 20.571ZM38.1558 27.1201L40.0452 28.6707L34.4648 34.3134C31.3957 37.4177 28.6819 39.9569 28.4346 39.9569C28.1881 39.9569 27.3326 38.8523 26.5347 37.5032C22.2667 30.2875 31.7206 21.841 38.1558 27.1201ZM79.8998 27.6268C82.7072 30.4298 83.2867 33.6236 81.6245 37.1219C80.8842 38.6813 80.0391 39.9569 79.747 39.9569C79.4557 39.9569 76.7051 37.4177 73.6359 34.3134L68.0555 28.6707L69.945 27.1201C72.7316 24.8342 77.3381 25.0684 79.8998 27.6268ZM49.9721 38.6653C50.7107 39.5541 48.3099 42.2587 37.7348 52.4524C30.4985 59.4267 23.7969 66.4729 22.8422 68.1098C20.7686 71.6625 20.5589 77.0878 22.3604 80.5669C26.0113 87.6187 36.2991 89.1357 42.3685 83.5178C45.8986 80.2504 45.2015 78.1124 38.295 71.0255C33.5133 66.118 32.3576 64.4988 33.1035 63.7539C33.8494 63.0089 35.3891 64.1103 40.0172 68.702C46.4644 75.0984 48.1202 77.9326 47.3039 81.1792C46.6052 83.9614 42.4917 87.6099 38.2158 89.2404C31.5389 91.7876 22.6341 87.9528 19.5682 81.2111C17.7499 77.2125 17.6218 72.0693 19.244 68.1921C20.3372 65.5793 47.099 37.5591 48.5011 37.5591C48.8044 37.5591 49.4663 38.0571 49.9721 38.6653ZM60.0598 48.7559L65.6258 54.3578L59.8381 60.1388L54.0504 65.919L48.2626 60.1388L42.4749 54.3578L48.041 48.7559C51.1021 45.6748 53.8063 43.1539 54.0504 43.1539C54.2945 43.1539 56.9986 45.6748 60.0598 48.7559ZM38.1558 80.7604C35.598 82.868 30.8731 82.8096 28.5426 80.6421C25.0334 77.3763 24.6804 73.9395 27.4118 69.6236L28.6163 67.7197L34.3304 73.4616L40.0452 79.2034L38.1558 80.7604ZM82.5184 73.1515C83.4403 78.0589 79.7045 82.2869 74.4578 82.2741C71.3775 82.2669 68.4556 80.893 68.4556 79.452C68.4556 79.0715 70.8677 76.3333 73.8168 73.3657C78.8322 68.3176 79.2692 68.053 80.6033 69.2591C81.3876 69.968 82.2495 71.7192 82.5184 73.1515Z" fill="#005DAA"/>
</svg>
