<svg width="246" height="73" viewBox="0 0 246 73" fill="none" xmlns="http://www.w3.org/2000/svg">
<path fill-rule="evenodd" clip-rule="evenodd" d="M13.5254 12.4305C9.81008 13.2607 7.90489 14.3447 4.78475 17.4024C1.14591 20.968 -0.152061 24.4847 0.128042 30.0176C0.346622 34.336 1.29147 36.8152 4.03897 40.2845C5.42948 42.0393 5.44649 42.1282 4.55466 42.9345C4.04697 43.3936 2.88805 45.1614 1.97972 46.8633C-0.271605 51.0819 -0.630736 56.4823 1.04588 60.9217C3.92893 68.558 12.2475 73.2556 20.1404 71.7046C23.7022 71.0052 26.6798 69.6415 28.6285 67.8182L29.977 66.5569L31.5715 67.8971C40.6254 75.5055 54.8996 71.8195 59.0641 60.7983C61.0863 55.4468 59.7413 48.0892 55.8989 43.482L54.6645 42.0019L56.0635 40.235C58.5569 37.086 59.6668 34.346 59.9284 30.6954C60.6752 20.2757 53.1684 12.1508 42.7861 12.1403C38.6601 12.1363 35.8511 13.0564 32.5064 15.5086L30.086 17.283L27.1829 15.3258C22.6603 12.2771 18.3252 11.358 13.5254 12.4305ZM23.8497 16.4393C27.444 18.3929 43.8015 34.8096 43.3433 36.003C43.0727 36.7068 41.2476 35.1408 34.102 28.0739C24.1213 18.2036 21.9195 16.7435 17.0267 16.7545C8.83473 16.7724 2.53092 25.241 5.10186 32.774C5.42048 33.7076 6.34532 35.4475 7.15761 36.6399C8.22 38.1999 8.4811 38.9602 8.09045 39.3503C7.29516 40.1446 5.77811 38.59 4.19653 35.3616C0.652733 28.1273 4.29006 18.7441 11.8108 15.7174C15.3556 14.2913 20.461 14.5975 23.8497 16.4393ZM47.6959 15.5356C53.232 17.4193 57.2104 23.139 57.2199 29.2268C57.2289 34.7242 56.2516 36.2068 45.5141 46.9892C35.3254 57.2211 34.8297 58.0074 37.1591 60.2373C38.5911 61.6075 41.1145 62.6955 42.8622 62.6955C44.9869 62.6955 48.3987 60.7913 49.5196 58.9795C51.0152 56.5627 50.9006 52.8767 49.254 50.454C48.1526 48.833 48.0691 48.4633 48.6698 47.8634C49.2705 47.2634 49.5746 47.4578 50.8011 49.2256C52.7453 52.027 53.0884 56.1666 51.6154 59.0504C49.0864 64.0003 43.5224 65.9849 38.7041 63.6556C35.7706 62.2374 34.0329 60.073 34.0329 57.8371C34.0329 56.1906 34.7792 55.2964 43.691 46.2614C49.0024 40.8759 53.7106 35.6833 54.1533 34.7217C56.0535 30.5925 55.6553 25.6651 53.1259 21.9946C49.2585 16.3838 40.5678 15.0421 35.2794 19.2391C33.8014 20.412 33.2397 20.6139 32.6985 20.1658C31.7021 19.3395 32.9626 18.1002 36.6909 16.2394C40.1937 14.4916 43.9256 14.2528 47.6959 15.5356ZM21.0272 20.2772C22.5622 20.9725 26.016 24.0157 31.9062 29.8637C36.6519 34.5753 40.5353 38.615 40.5353 38.8398C40.5353 39.0646 40.1837 39.3833 39.7545 39.5481C39.2088 39.757 36.2297 37.1349 29.8759 30.8523C21.6874 22.7563 20.5665 21.8217 18.6628 21.5035C15.8918 21.0405 13.613 21.8302 11.5312 23.9752C8.93726 26.6477 8.83072 31.1685 11.2826 34.5248C11.9564 35.447 11.9609 35.6518 11.3186 36.1838C10.7124 36.6863 10.3498 36.4351 9.21837 34.7272C5.71959 29.4476 8.04794 22.032 13.8531 19.965C16.533 19.0103 18.4112 19.0923 21.0272 20.2772ZM48.2852 21.1069C52.027 23.702 53.5291 28.8806 51.7669 33.1142C51.2798 34.2836 47.4108 38.5781 41.3166 44.7123C31.1424 54.9537 30.5632 55.7965 31.2354 59.3756C31.6676 61.6785 34.133 64.4054 37.1316 65.8975C44.4237 69.5266 53.3075 65.3805 55.0676 57.5258C55.8284 54.1295 55.1072 50.7332 52.9259 47.4443C51.7379 45.6529 51.5363 45.018 52.0085 44.5555C52.4782 44.0964 52.8973 44.2997 53.8727 45.4616C60.219 53.0181 57.2069 64.7925 48.0436 68.2483C45.8863 69.0621 44.5098 69.2399 41.7138 69.0675C37.5572 68.8108 34.7822 67.4451 31.8651 64.2201L30.0315 62.193L28.2388 64.1746C22.7848 70.204 13.738 70.8319 7.78034 65.5943C5.15488 63.2865 3.68084 60.7079 3.04411 57.31C2.49991 54.4043 3.21567 50.1183 4.64819 47.7095C5.2199 46.7479 9.63052 41.9779 14.4503 37.1094C21.4333 30.0555 23.3515 28.3726 23.8962 28.8242C24.4459 29.2797 22.8644 31.114 15.8348 38.1754C4.36809 49.6947 2.97908 52.5445 5.52151 59.3307C8.09996 66.2137 16.1699 69.2624 22.9189 65.9035C26.0185 64.3609 27.8127 62.3628 28.5484 59.6339C29.4613 56.2485 28.806 54.8633 23.9483 49.9085C20.3479 46.2364 19.6237 45.2548 20.1764 44.7967C20.7196 44.3462 21.7825 45.1774 25.3468 48.842L29.8334 53.4541L39.9796 43.1193C49.11 33.819 50.1528 32.5842 50.3939 30.7873C50.7991 27.7717 50.1668 25.4348 48.4927 23.7634C45.6047 20.8786 41.03 20.5419 38.1069 22.9981C36.7889 24.1061 36.5859 24.1465 35.9852 23.4237C35.422 22.7464 35.47 22.5111 36.3028 21.8752C40.2107 18.8895 44.6743 18.6032 48.2852 21.1069ZM20.0973 25.2001L21.2783 26.1692L17.7905 29.6959C15.8723 31.636 14.1762 33.2231 14.0216 33.2231C13.8676 33.2231 13.3329 32.5327 12.8342 31.6895C10.1667 27.1797 16.0754 21.9006 20.0973 25.2001ZM46.1874 25.5168C47.942 27.2686 48.3042 29.2648 47.2653 31.4512C46.8026 32.4258 46.2744 33.2231 46.0919 33.2231C45.9098 33.2231 44.1907 31.636 42.2725 29.6959L38.7847 26.1692L39.9656 25.2001C41.7072 23.7714 44.5863 23.9178 46.1874 25.5168ZM27.4825 32.4158C27.9442 32.9713 26.4437 34.6617 19.8342 41.0328C15.3116 45.3917 11.1231 49.7956 10.5263 50.8186C9.23037 53.039 9.09932 56.4299 10.2252 58.6043C12.5071 63.0117 18.9369 63.9598 22.7303 60.4486C24.9366 58.4065 24.501 57.0703 20.1844 52.6409C17.1958 49.5738 16.4735 48.5617 16.9397 48.0962C17.4059 47.6306 18.3682 48.3189 21.2608 51.1888C25.2902 55.1865 26.3251 56.9579 25.8149 58.987C25.3783 60.7258 22.8073 63.0062 20.1349 64.0253C15.9618 65.6173 10.3963 63.2205 8.48009 59.007C7.34368 56.5078 7.26365 53.2933 8.27752 50.8701C8.96077 49.2371 25.6869 31.7245 26.5632 31.7245C26.7528 31.7245 27.1664 32.0357 27.4825 32.4158ZM33.7874 38.7224L37.2661 42.2236L33.6488 45.8368L30.0315 49.4494L26.4142 45.8368L22.7968 42.2236L26.2756 38.7224C28.1888 36.7967 29.8789 35.2212 30.0315 35.2212C30.184 35.2212 31.8742 36.7967 33.7874 38.7224ZM20.0973 58.7252C18.4988 60.0425 15.5457 60.006 14.0891 58.6513C11.8958 56.6102 11.6753 54.4622 13.3824 51.7647L14.1352 50.5748L17.7065 54.1635L21.2783 57.7521L20.0973 58.7252ZM47.824 53.9697C48.4002 57.0368 46.0653 59.6793 42.7861 59.6713C40.8609 59.6668 39.0348 58.8081 39.0348 57.9075C39.0348 57.6697 40.5423 55.9583 42.3855 54.1035C45.5201 50.9485 45.7932 50.7831 46.627 51.5369C47.1172 51.98 47.6559 53.0745 47.824 53.9697Z" fill="#005DAA"/>
<path d="M76.2422 50V46.3906L78.7266 46.0391L90.0234 15.875H95.7656L106.922 46.0391L109.406 46.3906V50H98.5547V46.3906L100.992 45.9453L99.1875 40.5781H86.4844L84.6328 45.9453L87.0938 46.3906V50H76.2422ZM88.0312 36.0547H97.6641L93.2344 23.4219L92.9297 22.5078H92.7891L92.4609 23.4688L88.0312 36.0547ZM119.133 50.4453C116.977 50.4453 115.297 49.8438 114.094 48.6406C112.891 47.4219 112.289 45.4844 112.289 42.8281V28.8594H108.586V24.6406H112.289V18.4766H118.172V24.6406H123.188V28.8594H118.172V42.8281C118.172 43.9062 118.391 44.6953 118.828 45.1953C119.281 45.6797 119.891 45.9219 120.656 45.9219C121.094 45.9219 121.578 45.8828 122.109 45.8047C122.656 45.7266 123.094 45.6484 123.422 45.5703L124.031 49.7188C123.344 49.9219 122.555 50.0938 121.664 50.2344C120.789 50.375 119.945 50.4453 119.133 50.4453ZM127.055 50V46.3906L130.57 45.6875V28.9766L126.867 28.2734V24.6406H136.008L136.312 27.8281L136.359 28.3438C137.031 27 137.852 25.9688 138.82 25.25C139.805 24.5312 140.953 24.1719 142.266 24.1719C142.703 24.1719 143.164 24.2109 143.648 24.2891C144.148 24.3672 144.555 24.4531 144.867 24.5469L144.188 30.0078L140.883 29.8203C139.805 29.7578 138.914 29.9688 138.211 30.4531C137.523 30.9375 136.945 31.6094 136.477 32.4688V45.6875L139.992 46.3906V50H127.055ZM147.281 50V46.3906L150.797 45.6875V28.9766L147.07 28.2734V24.6406H156.703V45.6875L160.195 46.3906V50H147.281ZM150.562 18.8984V13.4375H156.703V18.8984H150.562ZM173.812 50.4922C171.094 50.4922 168.969 49.6328 167.438 47.9141C165.922 46.1797 165.164 43.4922 165.164 39.8516V28.9766L162.305 28.2734V24.6406H165.164H171.07V39.8984C171.07 42.0859 171.414 43.625 172.102 44.5156C172.805 45.3906 173.883 45.8281 175.336 45.8281C176.617 45.8281 177.703 45.5781 178.594 45.0781C179.5 44.5625 180.219 43.8359 180.75 42.8984V28.9766L177.562 28.2734V24.6406H180.75H186.656V45.6875L189.656 46.3906V50H181.43L181.031 46.5547C180.234 47.8203 179.219 48.7969 177.984 49.4844C176.766 50.1562 175.375 50.4922 173.812 50.4922ZM192.305 50V46.3906L195.844 45.6875V28.9766L192.117 28.2734V24.6406H201.258L201.539 27.9688C202.367 26.7656 203.398 25.8359 204.633 25.1797C205.883 24.5078 207.328 24.1719 208.969 24.1719C210.625 24.1719 212.039 24.5469 213.211 25.2969C214.398 26.0312 215.297 27.1484 215.906 28.6484C216.688 27.2578 217.711 26.1641 218.977 25.3672C220.258 24.5703 221.758 24.1719 223.477 24.1719C226.023 24.1719 228.023 25.0391 229.477 26.7734C230.945 28.5078 231.68 31.1328 231.68 34.6484V45.6875L235.219 46.3906V50H222.445V46.3906L225.773 45.6875V34.625C225.773 32.4844 225.414 30.9844 224.695 30.125C223.977 29.2656 222.922 28.8359 221.531 28.8359C220.234 28.8359 219.164 29.25 218.32 30.0781C217.492 30.9062 216.953 31.9609 216.703 33.2422V45.6875L219.914 46.3906V50H207.609V46.3906L210.82 45.6875V34.625C210.82 32.5625 210.453 31.0859 209.719 30.1953C208.984 29.2891 207.922 28.8359 206.531 28.8359C205.375 28.8359 204.398 29.0703 203.602 29.5391C202.82 30.0078 202.195 30.6719 201.727 31.5312V45.6875L205.031 46.3906V50H192.305Z" fill="#005DAA"/>
<path d="M80 69H76.4091V57.3636H80.1591C81.2879 57.3636 82.2538 57.5966 83.0568 58.0625C83.8598 58.5246 84.4754 59.1894 84.9034 60.0568C85.3314 60.9205 85.5455 61.9545 85.5455 63.1591C85.5455 64.3712 85.3295 65.4148 84.8977 66.2898C84.4659 67.161 83.8371 67.8314 83.0114 68.3011C82.1856 68.767 81.1818 69 80 69ZM77.8182 67.75H79.9091C80.8712 67.75 81.6686 67.5644 82.3011 67.1932C82.9337 66.822 83.4053 66.2936 83.7159 65.608C84.0265 64.9223 84.1818 64.1061 84.1818 63.1591C84.1818 62.2197 84.0284 61.411 83.7216 60.733C83.4148 60.0511 82.9564 59.5284 82.3466 59.1648C81.7367 58.7973 80.9773 58.6136 80.0682 58.6136H77.8182V67.75ZM87.7273 69V60.2727H89.0682V69H87.7273ZM88.4091 58.8182C88.1477 58.8182 87.9223 58.7292 87.733 58.5511C87.5473 58.3731 87.4545 58.1591 87.4545 57.9091C87.4545 57.6591 87.5473 57.4451 87.733 57.267C87.9223 57.089 88.1477 57 88.4091 57C88.6705 57 88.8939 57.089 89.0795 57.267C89.2689 57.4451 89.3636 57.6591 89.3636 57.9091C89.3636 58.1591 89.2689 58.3731 89.0795 58.5511C88.8939 58.7292 88.6705 58.8182 88.4091 58.8182ZM97.706 62.2273L96.5014 62.5682C96.4257 62.3674 96.3139 62.1723 96.1662 61.983C96.0223 61.7898 95.8253 61.6307 95.5753 61.5057C95.3253 61.3807 95.0052 61.3182 94.6151 61.3182C94.081 61.3182 93.6359 61.4413 93.2798 61.6875C92.9276 61.9299 92.7514 62.2386 92.7514 62.6136C92.7514 62.947 92.8726 63.2102 93.1151 63.4034C93.3575 63.5966 93.7363 63.7576 94.2514 63.8864L95.5469 64.2045C96.3272 64.3939 96.9086 64.6837 97.2912 65.0739C97.6738 65.4602 97.8651 65.9583 97.8651 66.5682C97.8651 67.0682 97.7211 67.5152 97.4332 67.9091C97.1491 68.303 96.7514 68.6136 96.2401 68.8409C95.7287 69.0682 95.134 69.1818 94.456 69.1818C93.5658 69.1818 92.8291 68.9886 92.2457 68.6023C91.6624 68.2159 91.2931 67.6515 91.1378 66.9091L92.4105 66.5909C92.5317 67.0606 92.7609 67.4129 93.098 67.6477C93.4389 67.8826 93.884 68 94.4332 68C95.0582 68 95.5545 67.8674 95.9219 67.6023C96.2931 67.3333 96.4787 67.0114 96.4787 66.6364C96.4787 66.3333 96.3726 66.0795 96.1605 65.875C95.9484 65.6667 95.6226 65.5114 95.1832 65.4091L93.7287 65.0682C92.9295 64.8788 92.3423 64.5852 91.9673 64.1875C91.5961 63.786 91.4105 63.2841 91.4105 62.6818C91.4105 62.1894 91.5488 61.7538 91.8253 61.375C92.1056 60.9962 92.4863 60.6989 92.9673 60.483C93.4522 60.267 94.0014 60.1591 94.6151 60.1591C95.4787 60.1591 96.1567 60.3485 96.6491 60.7273C97.1454 61.1061 97.4976 61.6061 97.706 62.2273ZM103.429 69.1818C102.611 69.1818 101.906 68.9886 101.315 68.6023C100.724 68.2159 100.27 67.6837 99.9517 67.0057C99.6335 66.3277 99.4744 65.553 99.4744 64.6818C99.4744 63.7955 99.6373 63.0133 99.9631 62.3352C100.293 61.6534 100.751 61.1212 101.338 60.7386C101.929 60.3523 102.618 60.1591 103.406 60.1591C104.02 60.1591 104.573 60.2727 105.065 60.5C105.558 60.7273 105.961 61.0455 106.276 61.4545C106.59 61.8636 106.785 62.3409 106.861 62.8864H105.52C105.418 62.4886 105.19 62.1364 104.838 61.8295C104.49 61.5189 104.02 61.3636 103.429 61.3636C102.906 61.3636 102.448 61.5 102.054 61.7727C101.664 62.0417 101.359 62.4223 101.139 62.9148C100.923 63.4034 100.815 63.9773 100.815 64.6364C100.815 65.3106 100.921 65.8977 101.134 66.3977C101.349 66.8977 101.652 67.286 102.043 67.5625C102.437 67.839 102.899 67.9773 103.429 67.9773C103.777 67.9773 104.094 67.9167 104.378 67.7955C104.662 67.6742 104.902 67.5 105.099 67.2727C105.296 67.0455 105.437 66.7727 105.52 66.4545H106.861C106.785 66.9697 106.598 67.4337 106.298 67.8466C106.003 68.2557 105.611 68.5814 105.122 68.8239C104.637 69.0625 104.073 69.1818 103.429 69.1818ZM112.366 69.1818C111.579 69.1818 110.887 68.9943 110.293 68.6193C109.702 68.2443 109.24 67.7197 108.906 67.0455C108.577 66.3712 108.412 65.5833 108.412 64.6818C108.412 63.7727 108.577 62.9792 108.906 62.3011C109.24 61.6231 109.702 61.0966 110.293 60.7216C110.887 60.3466 111.579 60.1591 112.366 60.1591C113.154 60.1591 113.844 60.3466 114.435 60.7216C115.029 61.0966 115.491 61.6231 115.821 62.3011C116.154 62.9792 116.321 63.7727 116.321 64.6818C116.321 65.5833 116.154 66.3712 115.821 67.0455C115.491 67.7197 115.029 68.2443 114.435 68.6193C113.844 68.9943 113.154 69.1818 112.366 69.1818ZM112.366 67.9773C112.965 67.9773 113.457 67.8239 113.844 67.517C114.23 67.2102 114.516 66.8068 114.702 66.3068C114.887 65.8068 114.98 65.2652 114.98 64.6818C114.98 64.0985 114.887 63.5549 114.702 63.0511C114.516 62.5473 114.23 62.1402 113.844 61.8295C113.457 61.5189 112.965 61.3636 112.366 61.3636C111.768 61.3636 111.276 61.5189 110.889 61.8295C110.503 62.1402 110.217 62.5473 110.031 63.0511C109.846 63.5549 109.753 64.0985 109.753 64.6818C109.753 65.2652 109.846 65.8068 110.031 66.3068C110.217 66.8068 110.503 67.2102 110.889 67.517C111.276 67.8239 111.768 67.9773 112.366 67.9773ZM125.192 60.2727L121.964 69H120.601L117.374 60.2727H118.828L121.237 67.2273H121.328L123.737 60.2727H125.192ZM130.308 69.1818C129.467 69.1818 128.742 68.9962 128.132 68.625C127.526 68.25 127.058 67.7273 126.729 67.0568C126.403 66.3826 126.24 65.5985 126.24 64.7045C126.24 63.8106 126.403 63.0227 126.729 62.3409C127.058 61.6553 127.517 61.1212 128.104 60.7386C128.695 60.3523 129.384 60.1591 130.172 60.1591C130.626 60.1591 131.075 60.2348 131.518 60.3864C131.962 60.5379 132.365 60.7841 132.729 61.125C133.092 61.4621 133.382 61.9091 133.598 62.4659C133.814 63.0227 133.922 63.7083 133.922 64.5227V65.0909H127.195V63.9318H132.558C132.558 63.4394 132.46 63 132.263 62.6136C132.07 62.2273 131.793 61.9223 131.433 61.6989C131.077 61.4754 130.657 61.3636 130.172 61.3636C129.638 61.3636 129.176 61.4962 128.786 61.7614C128.399 62.0227 128.102 62.3636 127.893 62.7841C127.685 63.2045 127.581 63.6553 127.581 64.1364V64.9091C127.581 65.5682 127.695 66.1269 127.922 66.5852C128.153 67.0398 128.473 67.3864 128.882 67.625C129.291 67.8598 129.767 67.9773 130.308 67.9773C130.661 67.9773 130.979 67.928 131.263 67.8295C131.551 67.7273 131.799 67.5758 132.007 67.375C132.215 67.1705 132.376 66.9167 132.49 66.6136L133.786 66.9773C133.649 67.4167 133.42 67.803 133.098 68.1364C132.776 68.4659 132.378 68.7235 131.905 68.9091C131.431 69.0909 130.899 69.1818 130.308 69.1818ZM135.962 69V60.2727H137.257V61.5909H137.348C137.507 61.1591 137.795 60.8087 138.212 60.5398C138.628 60.2708 139.098 60.1364 139.621 60.1364C139.719 60.1364 139.842 60.1383 139.99 60.142C140.138 60.1458 140.25 60.1515 140.325 60.1591V61.5227C140.28 61.5114 140.176 61.4943 140.013 61.4716C139.854 61.4451 139.685 61.4318 139.507 61.4318C139.083 61.4318 138.704 61.5208 138.371 61.6989C138.041 61.8731 137.78 62.1155 137.587 62.4261C137.397 62.733 137.303 63.0833 137.303 63.4773V69H135.962ZM149.96 69.1818C149.172 69.1818 148.481 68.9943 147.886 68.6193C147.295 68.2443 146.833 67.7197 146.5 67.0455C146.17 66.3712 146.006 65.5833 146.006 64.6818C146.006 63.7727 146.17 62.9792 146.5 62.3011C146.833 61.6231 147.295 61.0966 147.886 60.7216C148.481 60.3466 149.172 60.1591 149.96 60.1591C150.748 60.1591 151.438 60.3466 152.028 60.7216C152.623 61.0966 153.085 61.6231 153.415 62.3011C153.748 62.9792 153.915 63.7727 153.915 64.6818C153.915 65.5833 153.748 66.3712 153.415 67.0455C153.085 67.7197 152.623 68.2443 152.028 68.6193C151.438 68.9943 150.748 69.1818 149.96 69.1818ZM149.96 67.9773C150.559 67.9773 151.051 67.8239 151.438 67.517C151.824 67.2102 152.11 66.8068 152.295 66.3068C152.481 65.8068 152.574 65.2652 152.574 64.6818C152.574 64.0985 152.481 63.5549 152.295 63.0511C152.11 62.5473 151.824 62.1402 151.438 61.8295C151.051 61.5189 150.559 61.3636 149.96 61.3636C149.362 61.3636 148.869 61.5189 148.483 61.8295C148.097 62.1402 147.811 62.5473 147.625 63.0511C147.439 63.5549 147.347 64.0985 147.347 64.6818C147.347 65.2652 147.439 65.8068 147.625 66.3068C147.811 66.8068 148.097 67.2102 148.483 67.517C148.869 67.8239 149.362 67.9773 149.96 67.9773ZM155.962 72.2727V60.2727H157.257V61.6591H157.416C157.515 61.5076 157.651 61.3144 157.825 61.0795C158.003 60.8409 158.257 60.6288 158.587 60.4432C158.92 60.2538 159.371 60.1591 159.939 60.1591C160.674 60.1591 161.321 60.3428 161.882 60.7102C162.443 61.0777 162.88 61.5985 163.195 62.2727C163.509 62.947 163.666 63.7424 163.666 64.6591C163.666 65.5833 163.509 66.3845 163.195 67.0625C162.88 67.7367 162.445 68.2595 161.888 68.6307C161.331 68.9981 160.689 69.1818 159.962 69.1818C159.401 69.1818 158.952 69.089 158.615 68.9034C158.278 68.714 158.018 68.5 157.837 68.2614C157.655 68.0189 157.515 67.8182 157.416 67.6591H157.303V72.2727H155.962ZM157.28 64.6364C157.28 65.2955 157.376 65.8769 157.57 66.3807C157.763 66.8807 158.045 67.2727 158.416 67.5568C158.787 67.8371 159.242 67.9773 159.78 67.9773C160.34 67.9773 160.808 67.8295 161.183 67.5341C161.562 67.2348 161.846 66.8333 162.036 66.3295C162.229 65.822 162.325 65.2576 162.325 64.6364C162.325 64.0227 162.231 63.4697 162.041 62.9773C161.856 62.4811 161.573 62.089 161.195 61.8011C160.82 61.5095 160.348 61.3636 159.78 61.3636C159.234 61.3636 158.776 61.5019 158.405 61.7784C158.034 62.0511 157.753 62.4337 157.564 62.9261C157.375 63.4148 157.28 63.9848 157.28 64.6364ZM165.712 72.2727V60.2727H167.007V61.6591H167.166C167.265 61.5076 167.401 61.3144 167.575 61.0795C167.753 60.8409 168.007 60.6288 168.337 60.4432C168.67 60.2538 169.121 60.1591 169.689 60.1591C170.424 60.1591 171.071 60.3428 171.632 60.7102C172.193 61.0777 172.63 61.5985 172.945 62.2727C173.259 62.947 173.416 63.7424 173.416 64.6591C173.416 65.5833 173.259 66.3845 172.945 67.0625C172.63 67.7367 172.195 68.2595 171.638 68.6307C171.081 68.9981 170.439 69.1818 169.712 69.1818C169.151 69.1818 168.702 69.089 168.365 68.9034C168.028 68.714 167.768 68.5 167.587 68.2614C167.405 68.0189 167.265 67.8182 167.166 67.6591H167.053V72.2727H165.712ZM167.03 64.6364C167.03 65.2955 167.126 65.8769 167.32 66.3807C167.513 66.8807 167.795 67.2727 168.166 67.5568C168.537 67.8371 168.992 67.9773 169.53 67.9773C170.09 67.9773 170.558 67.8295 170.933 67.5341C171.312 67.2348 171.596 66.8333 171.786 66.3295C171.979 65.822 172.075 65.2576 172.075 64.6364C172.075 64.0227 171.981 63.4697 171.791 62.9773C171.606 62.4811 171.323 62.089 170.945 61.8011C170.57 61.5095 170.098 61.3636 169.53 61.3636C168.984 61.3636 168.526 61.5019 168.155 61.7784C167.784 62.0511 167.503 62.4337 167.314 62.9261C167.125 63.4148 167.03 63.9848 167.03 64.6364ZM179.007 69.1818C178.219 69.1818 177.528 68.9943 176.933 68.6193C176.342 68.2443 175.88 67.7197 175.547 67.0455C175.217 66.3712 175.053 65.5833 175.053 64.6818C175.053 63.7727 175.217 62.9792 175.547 62.3011C175.88 61.6231 176.342 61.0966 176.933 60.7216C177.528 60.3466 178.219 60.1591 179.007 60.1591C179.795 60.1591 180.484 60.3466 181.075 60.7216C181.67 61.0966 182.132 61.6231 182.462 62.3011C182.795 62.9792 182.962 63.7727 182.962 64.6818C182.962 65.5833 182.795 66.3712 182.462 67.0455C182.132 67.7197 181.67 68.2443 181.075 68.6193C180.484 68.9943 179.795 69.1818 179.007 69.1818ZM179.007 67.9773C179.606 67.9773 180.098 67.8239 180.484 67.517C180.871 67.2102 181.157 66.8068 181.342 66.3068C181.528 65.8068 181.621 65.2652 181.621 64.6818C181.621 64.0985 181.528 63.5549 181.342 63.0511C181.157 62.5473 180.871 62.1402 180.484 61.8295C180.098 61.5189 179.606 61.3636 179.007 61.3636C178.409 61.3636 177.916 61.5189 177.53 61.8295C177.143 62.1402 176.857 62.5473 176.672 63.0511C176.486 63.5549 176.393 64.0985 176.393 64.6818C176.393 65.2652 176.486 65.8068 176.672 66.3068C176.857 66.8068 177.143 67.2102 177.53 67.517C177.916 67.8239 178.409 67.9773 179.007 67.9773ZM185.009 69V60.2727H186.304V61.5909H186.395C186.554 61.1591 186.842 60.8087 187.259 60.5398C187.675 60.2708 188.145 60.1364 188.668 60.1364C188.766 60.1364 188.889 60.1383 189.037 60.142C189.185 60.1458 189.296 60.1515 189.372 60.1591V61.5227C189.327 61.5114 189.223 61.4943 189.06 61.4716C188.901 61.4451 188.732 61.4318 188.554 61.4318C188.13 61.4318 187.751 61.5208 187.418 61.6989C187.088 61.8731 186.827 62.1155 186.634 62.4261C186.444 62.733 186.349 63.0833 186.349 63.4773V69H185.009ZM195.304 60.2727V61.4091H190.781V60.2727H195.304ZM192.099 58.1818H193.44V66.5C193.44 66.8788 193.495 67.1629 193.605 67.3523C193.719 67.5379 193.863 67.6629 194.037 67.7273C194.215 67.7879 194.402 67.8182 194.599 67.8182C194.747 67.8182 194.868 67.8106 194.963 67.7955C195.058 67.7765 195.134 67.7614 195.19 67.75L195.463 68.9545C195.372 68.9886 195.245 69.0227 195.082 69.0568C194.92 69.0947 194.713 69.1136 194.463 69.1136C194.084 69.1136 193.713 69.0322 193.349 68.8693C192.99 68.7064 192.69 68.4583 192.452 68.125C192.217 67.7917 192.099 67.3712 192.099 66.8636V58.1818ZM202.821 65.4318V60.2727H204.162V69H202.821V67.5227H202.73C202.526 67.9659 202.207 68.3428 201.776 68.6534C201.344 68.9602 200.798 69.1136 200.139 69.1136C199.594 69.1136 199.109 68.9943 198.685 68.7557C198.26 68.5133 197.927 68.1496 197.685 67.6648C197.442 67.1761 197.321 66.5606 197.321 65.8182V60.2727H198.662V65.7273C198.662 66.3636 198.84 66.8712 199.196 67.25C199.556 67.6288 200.014 67.8182 200.571 67.8182C200.904 67.8182 201.243 67.733 201.588 67.5625C201.937 67.392 202.228 67.1307 202.463 66.7784C202.702 66.4261 202.821 65.9773 202.821 65.4318ZM207.959 63.75V69H206.618V60.2727H207.913V61.6364H208.027C208.232 61.1932 208.542 60.8371 208.959 60.5682C209.375 60.2955 209.913 60.1591 210.572 60.1591C211.163 60.1591 211.68 60.2803 212.124 60.5227C212.567 60.7614 212.911 61.125 213.158 61.6136C213.404 62.0985 213.527 62.7121 213.527 63.4545V69H212.186V63.5455C212.186 62.8598 212.008 62.3258 211.652 61.9432C211.296 61.5568 210.807 61.3636 210.186 61.3636C209.758 61.3636 209.375 61.4564 209.038 61.642C208.705 61.8277 208.442 62.0985 208.249 62.4545C208.055 62.8106 207.959 63.2424 207.959 63.75ZM215.977 69V60.2727H217.318V69H215.977ZM216.659 58.8182C216.398 58.8182 216.172 58.7292 215.983 58.5511C215.797 58.3731 215.705 58.1591 215.705 57.9091C215.705 57.6591 215.797 57.4451 215.983 57.267C216.172 57.089 216.398 57 216.659 57C216.92 57 217.144 57.089 217.33 57.267C217.519 57.4451 217.614 57.6591 217.614 57.9091C217.614 58.1591 217.519 58.3731 217.33 58.5511C217.144 58.7292 216.92 58.8182 216.659 58.8182ZM223.57 60.2727V61.4091H219.047V60.2727H223.57ZM220.365 58.1818H221.706V66.5C221.706 66.8788 221.761 67.1629 221.871 67.3523C221.984 67.5379 222.128 67.6629 222.303 67.7273C222.481 67.7879 222.668 67.8182 222.865 67.8182C223.013 67.8182 223.134 67.8106 223.229 67.7955C223.323 67.7765 223.399 67.7614 223.456 67.75L223.729 68.9545C223.638 68.9886 223.511 69.0227 223.348 69.0568C223.185 69.0947 222.979 69.1136 222.729 69.1136C222.35 69.1136 221.979 69.0322 221.615 68.8693C221.255 68.7064 220.956 68.4583 220.717 68.125C220.482 67.7917 220.365 67.3712 220.365 66.8636V58.1818ZM225.587 69V60.2727H226.928V69H225.587ZM226.268 58.8182C226.007 58.8182 225.782 58.7292 225.592 58.5511C225.407 58.3731 225.314 58.1591 225.314 57.9091C225.314 57.6591 225.407 57.4451 225.592 57.267C225.782 57.089 226.007 57 226.268 57C226.53 57 226.753 57.089 226.939 57.267C227.128 57.4451 227.223 57.6591 227.223 57.9091C227.223 58.1591 227.128 58.3731 226.939 58.5511C226.753 58.7292 226.53 58.8182 226.268 58.8182ZM233.043 69.1818C232.202 69.1818 231.476 68.9962 230.866 68.625C230.26 68.25 229.793 67.7273 229.463 67.0568C229.137 66.3826 228.974 65.5985 228.974 64.7045C228.974 63.8106 229.137 63.0227 229.463 62.3409C229.793 61.6553 230.251 61.1212 230.838 60.7386C231.429 60.3523 232.118 60.1591 232.906 60.1591C233.361 60.1591 233.81 60.2348 234.253 60.3864C234.696 60.5379 235.099 60.7841 235.463 61.125C235.827 61.4621 236.116 61.9091 236.332 62.4659C236.548 63.0227 236.656 63.7083 236.656 64.5227V65.0909H229.929V63.9318H235.293C235.293 63.4394 235.194 63 234.997 62.6136C234.804 62.2273 234.527 61.9223 234.168 61.6989C233.812 61.4754 233.391 61.3636 232.906 61.3636C232.372 61.3636 231.91 61.4962 231.52 61.7614C231.134 62.0227 230.836 62.3636 230.628 62.7841C230.42 63.2045 230.315 63.6553 230.315 64.1364V64.9091C230.315 65.5682 230.429 66.1269 230.656 66.5852C230.887 67.0398 231.207 67.3864 231.616 67.625C232.026 67.8598 232.501 67.9773 233.043 67.9773C233.395 67.9773 233.713 67.928 233.997 67.8295C234.285 67.7273 234.533 67.5758 234.741 67.375C234.95 67.1705 235.111 66.9167 235.224 66.6136L236.52 66.9773C236.384 67.4167 236.154 67.803 235.832 68.1364C235.51 68.4659 235.113 68.7235 234.639 68.9091C234.166 69.0909 233.634 69.1818 233.043 69.1818ZM244.878 62.2273L243.673 62.5682C243.598 62.3674 243.486 62.1723 243.338 61.983C243.194 61.7898 242.997 61.6307 242.747 61.5057C242.497 61.3807 242.177 61.3182 241.787 61.3182C241.253 61.3182 240.808 61.4413 240.452 61.6875C240.099 61.9299 239.923 62.2386 239.923 62.6136C239.923 62.947 240.045 63.2102 240.287 63.4034C240.529 63.5966 240.908 63.7576 241.423 63.8864L242.719 64.2045C243.499 64.3939 244.08 64.6837 244.463 65.0739C244.846 65.4602 245.037 65.9583 245.037 66.5682C245.037 67.0682 244.893 67.5152 244.605 67.9091C244.321 68.303 243.923 68.6136 243.412 68.8409C242.901 69.0682 242.306 69.1818 241.628 69.1818C240.738 69.1818 240.001 68.9886 239.418 68.6023C238.834 68.2159 238.465 67.6515 238.31 66.9091L239.582 66.5909C239.704 67.0606 239.933 67.4129 240.27 67.6477C240.611 67.8826 241.056 68 241.605 68C242.23 68 242.726 67.8674 243.094 67.6023C243.465 67.3333 243.651 67.0114 243.651 66.6364C243.651 66.3333 243.545 66.0795 243.332 65.875C243.12 65.6667 242.795 65.5114 242.355 65.4091L240.901 65.0682C240.101 64.8788 239.514 64.5852 239.139 64.1875C238.768 63.786 238.582 63.2841 238.582 62.6818C238.582 62.1894 238.721 61.7538 238.997 61.375C239.277 60.9962 239.658 60.6989 240.139 60.483C240.624 60.267 241.173 60.1591 241.787 60.1591C242.651 60.1591 243.329 60.3485 243.821 60.7273C244.317 61.1061 244.67 61.6061 244.878 62.2273Z" fill="#898989"/>
</svg>
